# xmcd
#
# Track frame offsets: 
#        150
#        13862
#        32262
#        61507
#        83733
#        113523
#        134240
#        149460
#        173760
#        192953
#        224149
#        241258
#        265625
#        282070
#        299743
#        327282
#        345575
#
# Disc length: 4778 seconds
#
# Revision: 0
# Processed by: cddbd v1.5.2PL0 Copyright (c) Steve Scherf et al.
# Submitted via: ExactAudioCopy v1.3
#
DISCID=fd12a811
DTITLE=Various Artist - Akella Presents - vol. 121 - Various Styles O
DTITLE=f Blues  CD2
DYEAR=2018
DGENRE=Blues
TTITLE0=Bjorn Berge - Locomotive Breath
TTITLE1=Bobby Messano - Come To Your Senses
TTITLE2=The James Montgomery Blues Band - I Got A Mind To Give Up Livi
TTITLE2=ng
TTITLE3=Rockocola - Karma
TTITLE4=Scott Ramminger and Regina McCrary - The Other Man's Shoes
TTITLE5=Jay Willie Blues Band - Devilbones
TTITLE6=Ruthie Foster - Wrapped Around My Heart
TTITLE7=Long John Baldry and Kathi McDonald - Insane Asylum
TTITLE8=B. B. Dogg - Sugardaddy
TTITLE9=Lee Thomas Band - Crossroads
TTITLE10=Dr. Wu' And Friends - I'm Somebody's Son
TTITLE11=Mike Wheeler - Money Is The Name Of The Game
TTITLE12=Carl Verheyen - I Take What I Want
TTITLE13=Zed Mitchell - On the Road of Life
TTITLE14=Brett Wellman and the Stone Cold Blues Band - I Ain't Seen My B
TTITLE14=aby
TTITLE15=Per Frost - Karla Ponti In The Twilight
TTITLE16=Mike Goudreau - Have You Been Down To New Orleans
EXTD=
EXTT0=
EXTT1=
EXTT2=
EXTT3=
EXTT4=
EXTT5=
EXTT6=
EXTT7=
EXTT8=
EXTT9=
EXTT10=
EXTT11=
EXTT12=
EXTT13=
EXTT14=
EXTT15=
EXTT16=
PLAYORDER=
